<?xml version="1.0" standalone="no"?><!DOCTYPE svg PUBLIC "-//W3C//DTD SVG 1.1//EN" "http://www.w3.org/Graphics/SVG/1.1/DTD/svg11.dtd"><svg t="1599793081534" class="icon" viewBox="0 0 1024 1024" version="1.1" xmlns="http://www.w3.org/2000/svg" p-id="2898" xmlns:xlink="http://www.w3.org/1999/xlink" width="200" height="200"><defs><style type="text/css"></style></defs><path d="M234.666667 192.042667h725.333333a21.333333 21.333333 0 1 0 0-42.666667h-725.333333a21.333333 21.333333 0 0 0 0 42.666667zM234.666667 533.376h725.333333a21.333333 21.333333 0 1 0 0-42.666667h-725.333333a21.333333 21.333333 0 0 0 0 42.666667zM234.666667 874.709333h725.333333a21.333333 21.333333 0 1 0 0-42.666666h-725.333333a21.333333 21.333333 0 1 0 0 42.666666z" p-id="2899" fill="#d81e06"></path><path d="M85.333333 170.709333m-42.666666 0a42.666667 42.666667 0 1 0 85.333333 0 42.666667 42.666667 0 1 0-85.333333 0Z" p-id="2900" fill="#d81e06"></path><path d="M85.333333 512.042667m-42.666666 0a42.666667 42.666667 0 1 0 85.333333 0 42.666667 42.666667 0 1 0-85.333333 0Z" p-id="2901" fill="#d81e06"></path><path d="M85.333333 853.376m-42.666666 0a42.666667 42.666667 0 1 0 85.333333 0 42.666667 42.666667 0 1 0-85.333333 0Z" p-id="2902" fill="#d81e06"></path></svg>