<?xml version="1.0" standalone="no"?><!DOCTYPE svg PUBLIC "-//W3C//DTD SVG 1.1//EN" "http://www.w3.org/Graphics/SVG/1.1/DTD/svg11.dtd"><svg t="1600077142759" class="icon" viewBox="0 0 1152 1024" version="1.1" xmlns="http://www.w3.org/2000/svg" p-id="1218" xmlns:xlink="http://www.w3.org/1999/xlink" width="225" height="200"><defs><style type="text/css"></style></defs><path d="M1149.480083 224.12798a2.655575 2.655575 0 0 1 0 0.479923l-71.572548 294.800832a153.575428 153.575428 0 0 1-135.530315 118.157094h-0.863862L362.821948 680.023036h-2.719564a36.154215 36.154215 0 0 1-15.005599-3.199488l6.398976 39.545673a82.034874 82.034874 0 0 0 81.522956 68.37306h583.010718a35.546313 35.546313 0 1 1 0 71.060631H433.050712a153.575428 153.575428 0 0 1-152.487602-127.979524L182.754759 139.37354a81.970885 81.970885 0 0 0-81.490961-68.37306H35.962246a35.546313 35.546313 0 1 1 0-71.06063h65.301552a153.575428 153.575428 0 0 1 152.487602 127.979523L335.306351 618.944809a36.12222 36.12222 0 0 1 22.044473-9.598464l578.243481-42.425212a82.162854 82.162854 0 0 0 72.084466-63.25388v-0.479923l71.572549-294.736842a22.396417 22.396417 0 0 0-4.575268-19.196929 23.100304 23.100304 0 0 0-18.205087-8.638617H435.130379a35.546313 35.546313 0 1 1 0-71.060631h621.468565a95.216765 95.216765 0 0 1 74.356103 35.194369A92.785154 92.785154 0 0 1 1149.480083 224.12798zM403.487442 929.263158a47.384418 47.384418 0 1 1-47.992321 47.384418 47.672372 47.672372 0 0 1 47.992321-47.384418z m541.417373 0a47.384418 47.384418 0 1 1-47.992321 47.384418 47.672372 47.672372 0 0 1 47.992321-47.384418z" p-id="1219" fill="#d81e06"></path></svg>