<?xml version="1.0" standalone="no"?><!DOCTYPE svg PUBLIC "-//W3C//DTD SVG 1.1//EN" "http://www.w3.org/Graphics/SVG/1.1/DTD/svg11.dtd"><svg t="1600076473344" class="icon" viewBox="0 0 1024 1024" version="1.1" xmlns="http://www.w3.org/2000/svg" p-id="3215" xmlns:xlink="http://www.w3.org/1999/xlink" width="200" height="200"><defs><style type="text/css"></style></defs><path d="M939.58599111 192.18432h-412.43989333c-15.72864 0-28.54456889-12.81592889-28.54456889-28.54456889s12.81592889-28.54456889 28.54456889-28.54456889h412.43989333c15.72864 0 28.54456889 12.81592889 28.54456889 28.54456889s-12.81592889 28.54456889-28.54456889 28.54456889zM939.58599111 429.27900445h-412.43989333c-15.72864 0-28.54456889-12.81592889-28.54456889-28.5445689s12.81592889-28.54456889 28.54456889-28.54456888h412.43989333c15.72864 0 28.54456889 12.81592889 28.54456889 28.54456888s-12.81592889 28.54456889-28.54456889 28.5445689zM344.22784 464.81408h-196.89927111c-50.68117333 0-91.45912889-41.36049778-91.45912889-91.45912889v-196.89927111c0-50.68117333 41.36049778-91.45912889 91.45912889-91.45912889h196.89927111c50.68117333 0 91.45912889 41.36049778 91.45912889 91.45912889v196.89927111c0 50.09863111-41.36049778 91.45912889-91.45912889 91.45912889z m-196.89927111-325.05856c-20.38897778 0-36.70016 16.31118222-36.70016 36.70016v196.89927111c0 20.38897778 16.31118222 36.70016 36.70016 36.70016h196.89927111c20.38897778 0 36.70016-16.31118222 36.70016-36.70016v-196.89927111c0-20.38897778-16.31118222-36.70016-36.70016-36.70016h-196.89927111zM939.58599111 666.37368889h-412.43989333c-15.72864 0-28.54456889-12.81592889-28.54456889-28.54456889s12.81592889-28.54456889 28.54456889-28.54456889h412.43989333c15.72864 0 28.54456889 12.81592889 28.54456889 28.54456889s-12.81592889 28.54456889-28.54456889 28.54456889zM939.58599111 903.46837333h-412.43989333c-15.72864 0-28.54456889-12.81592889-28.54456889-28.54456888s12.81592889-28.54456889 28.54456889-28.5445689h412.43989333c15.72864 0 28.54456889 12.81592889 28.54456889 28.5445689s-12.81592889 28.54456889-28.54456889 28.54456888zM344.22784 939.00344889h-196.89927111c-50.68117333 0-91.45912889-41.36049778-91.45912889-91.45912889v-196.89927111c0-50.68117333 41.36049778-91.45912889 91.45912889-91.45912889h196.89927111c50.68117333 0 91.45912889 41.36049778 91.45912889 91.45912889v196.89927111c0 50.68117333-41.36049778 91.45912889-91.45912889 91.45912889z m-196.89927111-324.47601778c-20.38897778 0-36.70016 16.31118222-36.70016 36.70016v196.89927111c0 20.38897778 16.31118222 36.70016 36.70016 36.70016h196.89927111c20.38897778 0 36.70016-16.31118222 36.70016-36.70016v-196.89927111c0-20.38897778-16.31118222-36.70016-36.70016-36.70016h-196.89927111z" p-id="3216" fill="#d81e06"></path></svg>